<?xml version="1.0" encoding="UTF-8" standalone="no"?>
<!-- Created with Inkscape (http://www.inkscape.org/) -->

<svg
   xmlns:dc="http://purl.org/dc/elements/1.1/"
   xmlns:cc="http://creativecommons.org/ns#"
   xmlns:rdf="http://www.w3.org/1999/02/22-rdf-syntax-ns#"
   xmlns:svg="http://www.w3.org/2000/svg"
   xmlns="http://www.w3.org/2000/svg"
   xmlns:sodipodi="http://sodipodi.sourceforge.net/DTD/sodipodi-0.dtd"
   xmlns:inkscape="http://www.inkscape.org/namespaces/inkscape"
   width="8.5in"
   height="11in"
   viewBox="0 0 215.9 279.4"
   version="1.1"
   id="svg8"
   inkscape:version="0.92.3 (2405546, 2018-03-11)"
   sodipodi:docname="Lock.svg">
  <defs
     id="defs2" />
  <sodipodi:namedview
     id="base"
     pagecolor="#ffffff"
     bordercolor="#666666"
     borderopacity="1.0"
     inkscape:pageopacity="0.0"
     inkscape:pageshadow="2"
     inkscape:zoom="2.8"
     inkscape:cx="58.928571"
     inkscape:cy="723.06019"
     inkscape:document-units="mm"
     inkscape:current-layer="layer1"
     showgrid="true"
     units="in"
     inkscape:snap-path-clip="true"
     inkscape:window-width="2560"
     inkscape:window-height="1377"
     inkscape:window-x="-8"
     inkscape:window-y="-8"
     inkscape:window-maximized="1">
    <inkscape:grid
       type="xygrid"
       id="grid10"
       units="in"
       spacingx="6.35"
       spacingy="6.35" />
  </sodipodi:namedview>
  <metadata
     id="metadata5">
    <rdf:RDF>
      <cc:Work
         rdf:about="">
        <dc:format>image/svg+xml</dc:format>
        <dc:type
           rdf:resource="http://purl.org/dc/dcmitype/StillImage" />
        <dc:title></dc:title>
      </cc:Work>
    </rdf:RDF>
  </metadata>
  <g
     inkscape:label="Layer 1"
     inkscape:groupmode="layer"
     id="layer1"
     transform="translate(0,-17.6)">
    <path
       style="fill:none;stroke:#000000;stroke-width:0.26458332px;stroke-linecap:butt;stroke-linejoin:miter;stroke-opacity:1"
       d="m 38.1,131.9 v 6.35 h 6.349999 v -6.35 z"
       id="path12"
       inkscape:connector-curvature="0" />
    <path
       style="fill:none;stroke:#000000;stroke-width:0.26458332px;stroke-linecap:butt;stroke-linejoin:miter;stroke-opacity:1"
       d="m 50.799999,131.9 v 6.35 h 6.35 v -6.35 z"
       id="path14"
       inkscape:connector-curvature="0" />
    <path
       style="fill:none;stroke:#000000;stroke-width:0.26458332px;stroke-linecap:butt;stroke-linejoin:miter;stroke-opacity:1"
       d="m 63.499999,131.9 v 6.35 h 6.35 v -6.35 z"
       id="path16"
       inkscape:connector-curvature="0" />
    <path
       style="fill:none;stroke:#000000;stroke-width:0.26458332px;stroke-linecap:butt;stroke-linejoin:miter;stroke-opacity:1"
       d="m 76.199999,131.9 v 6.35 h 6.35 v -6.35 z"
       id="path18"
       inkscape:connector-curvature="0" />
    <path
       style="fill:none;fill-opacity:1;stroke-width:0.99999994;stroke:#000000;stroke-opacity:1"
       d="M 227.14258 325.71484 A 24 24 0 0 0 203.14258 349.71484 A 24 24 0 0 0 216 370.95117 L 216 408 L 240 408 L 240 369.97266 A 24 24 0 0 0 251.14258 349.71484 A 24 24 0 0 0 227.14258 325.71484 z "
       transform="matrix(0.26458333,0,0,0.26458333,0,17.6)"
       id="path20" />
    <path
       style="fill:none;stroke:#000000;stroke-width:0.99999994px;stroke-linecap:butt;stroke-linejoin:miter;stroke-opacity:1"
       d="M 227.42773 191.71484 C 167.99916 192.00056 168 240 168 240 L 168 288 L 96 288 L 96 504 L 360 504 L 360 288 L 288 288 L 288 240 C 288 240 291.00244 191.40919 227.42773 191.71484 z "
       transform="matrix(0.26458333,0,0,0.26458333,0,17.6)"
       id="path830" />
    <path
       style="fill:none;stroke:#000000;stroke-width:0.26458332px;stroke-linecap:butt;stroke-linejoin:miter;stroke-opacity:1"
       d="m 50.799999,93.799999 v -12.7 c 0,0 -0.100526,-7.748512 9.676192,-7.748512 9.373809,0 9.373808,7.748512 9.373808,7.748512 v 12.7 0"
       id="path834"
       inkscape:connector-curvature="0"
       sodipodi:nodetypes="ccsccc" />
    <path
       style="fill:none;stroke:#000000;stroke-width:0.26458332px;stroke-linecap:butt;stroke-linejoin:miter;stroke-opacity:1"
       d="m 50.799999,93.799999 h 19.05"
       id="path909"
       inkscape:connector-curvature="0" />
  </g>
</svg>
